<svg width="42" height="61" viewBox="0 0 42 61" fill="none" xmlns="http://www.w3.org/2000/svg">
<path d="M9.10259 29.2335C8.30211 29.2335 7.63831 28.593 7.63831 27.8207V12.7509C7.63831 11.9786 8.30211 11.3381 9.10259 11.3381C9.90306 11.3381 10.5669 11.9786 10.5669 12.7509V27.8207C10.5669 28.593 9.90306 29.2335 9.10259 29.2335Z" fill="#8391A1"/>
<path d="M14.9598 21.6986C14.1593 21.6986 13.4955 21.0581 13.4955 20.2858V12.7509C13.4955 11.9786 14.1593 11.3381 14.9598 11.3381C15.7602 11.3381 16.424 11.9786 16.424 12.7509V20.2858C16.424 21.0581 15.7602 21.6986 14.9598 21.6986Z" fill="#8391A1"/>
<path d="M14.9598 29.2335C14.1593 29.2335 13.4955 28.593 13.4955 27.8207V25.937C13.4955 25.1646 14.1593 24.5242 14.9598 24.5242C15.7602 24.5242 16.424 25.1646 16.424 25.937V27.8207C16.424 28.593 15.7602 29.2335 14.9598 29.2335Z" fill="#8391A1"/>
<path d="M26.6741 16.0474C25.8736 16.0474 25.2098 15.407 25.2098 14.6346V12.7509C25.2098 11.9786 25.8736 11.3381 26.6741 11.3381C27.4746 11.3381 28.1384 11.9786 28.1384 12.7509V14.6346C28.1384 15.407 27.4746 16.0474 26.6741 16.0474Z" fill="#8391A1"/>
<path d="M20.8169 29.2335C20.0165 29.2335 19.3527 28.593 19.3527 27.8207V12.7509C19.3527 11.9786 20.0165 11.3381 20.8169 11.3381C21.6174 11.3381 22.2812 11.9786 22.2812 12.7509V27.8207C22.2812 28.593 21.6174 29.2335 20.8169 29.2335Z" fill="#8391A1"/>
<path d="M26.6741 29.2335C25.8736 29.2335 25.2098 28.5931 25.2098 27.8207V20.2858C25.2098 19.5135 25.8736 18.873 26.6741 18.873C27.4746 18.873 28.1384 19.5135 28.1384 20.2858V27.8207C28.1384 28.5931 27.4746 29.2335 26.6741 29.2335Z" fill="#8391A1"/>
<path d="M32.5312 29.2335C31.7307 29.2335 31.0669 28.593 31.0669 27.8207V12.7509C31.0669 11.9786 31.7307 11.3381 32.5312 11.3381C33.3316 11.3381 33.9955 11.9786 33.9955 12.7509V27.8207C33.9955 28.593 33.3316 29.2335 32.5312 29.2335Z" fill="#8391A1"/>
<path d="M40.5119 16.0116C39.7114 16.0116 39.0476 15.3712 39.0476 14.5988V9.88954C39.0476 5.99023 35.7676 2.82558 31.7262 2.82558H26.8453C26.0448 2.82558 25.381 2.18512 25.381 1.41279C25.381 0.640465 26.0448 0 26.8453 0H31.7262C37.3686 0 41.9762 4.42674 41.9762 9.88954V14.5988C41.9762 15.3712 41.3124 16.0116 40.5119 16.0116Z" fill="#8391A1"/>
<path d="M31.7262 40.5H28.7977C27.9972 40.5 27.3334 39.8595 27.3334 39.0872C27.3334 38.3149 27.9972 37.6744 28.7977 37.6744H31.7262C35.7676 37.6744 39.0476 34.5097 39.0476 30.6104V27.7849C39.0476 27.0125 39.7114 26.3721 40.5119 26.3721C41.3124 26.3721 41.9762 27.0125 41.9762 27.7849V30.6104C41.9762 36.0732 37.3686 40.5 31.7262 40.5Z" fill="#8391A1"/>
<path d="M15.1309 40.5H10.25C4.6076 40.5 0 36.0732 0 30.6104V25.9011C0 25.1288 0.663807 24.4883 1.46428 24.4883C2.26475 24.4883 2.92856 25.1288 2.92856 25.9011V30.6104C2.92856 34.5097 6.20855 37.6744 10.25 37.6744H15.1309C15.9314 37.6744 16.5952 38.3149 16.5952 39.0872C16.5952 39.8595 15.9314 40.5 15.1309 40.5Z" fill="#8391A1"/>
<path d="M1.46428 16.0116C0.663807 16.0116 0 15.3712 0 14.5988V9.88954C0 4.42674 4.6076 0 10.25 0H15.1309C15.9314 0 16.5952 0.640465 16.5952 1.41279C16.5952 2.18512 15.9314 2.82558 15.1309 2.82558H10.25C6.20855 2.82558 2.92856 5.99023 2.92856 9.88954V14.5988C2.92856 15.3712 2.26475 16.0116 1.46428 16.0116Z" fill="#8391A1"/>
<path d="M9.05648 58.182C8.51514 58.182 7.99481 58.098 7.49548 57.93C7.00081 57.7573 6.56681 57.5123 6.19348 57.195C5.82014 56.873 5.55181 56.488 5.38848 56.04L6.99148 55.452C7.05681 55.6387 7.18981 55.809 7.39048 55.963C7.59114 56.117 7.83614 56.2407 8.12548 56.334C8.41481 56.4273 8.72514 56.474 9.05648 56.474C9.39714 56.474 9.71448 56.4227 10.0085 56.32C10.3071 56.2127 10.5475 56.0657 10.7295 55.879C10.9115 55.6877 11.0025 55.466 11.0025 55.214C11.0025 54.9573 10.9068 54.7473 10.7155 54.584C10.5241 54.416 10.2791 54.283 9.98048 54.185C9.68181 54.087 9.37381 54.0123 9.05648 53.961C8.36114 53.8537 7.73814 53.688 7.18748 53.464C6.63681 53.24 6.20048 52.9297 5.87848 52.533C5.56114 52.1363 5.40248 51.623 5.40248 50.993C5.40248 50.4003 5.57281 49.8823 5.91348 49.439C6.25414 48.9957 6.70214 48.6503 7.25748 48.403C7.81281 48.1557 8.41248 48.032 9.05648 48.032C9.59314 48.032 10.1111 48.116 10.6105 48.284C11.1098 48.452 11.5461 48.697 11.9195 49.019C12.2975 49.341 12.5681 49.7283 12.7315 50.181L11.1215 50.762C11.0561 50.5753 10.9231 50.405 10.7225 50.251C10.5218 50.097 10.2768 49.9757 9.98748 49.887C9.69814 49.7937 9.38781 49.747 9.05648 49.747C8.72514 49.7423 8.41014 49.796 8.11148 49.908C7.81748 50.0153 7.57714 50.1623 7.39048 50.349C7.20381 50.5357 7.11048 50.7503 7.11048 50.993C7.11048 51.3057 7.19681 51.5413 7.36948 51.7C7.54681 51.8587 7.78248 51.9753 8.07648 52.05C8.37048 52.12 8.69714 52.1853 9.05648 52.246C9.70981 52.3487 10.3141 52.5213 10.8695 52.764C11.4248 53.0067 11.8705 53.331 12.2065 53.737C12.5425 54.1383 12.7105 54.6307 12.7105 55.214C12.7105 55.8067 12.5425 56.327 12.2065 56.775C11.8705 57.2183 11.4248 57.5637 10.8695 57.811C10.3141 58.0583 9.70981 58.182 9.05648 58.182ZM18.3861 55.893L19.9261 56.726C19.6041 57.1647 19.2004 57.517 18.7151 57.783C18.2297 58.049 17.7001 58.182 17.1261 58.182C16.4821 58.182 15.8941 58.0163 15.3621 57.685C14.8347 57.3537 14.4124 56.9103 14.0951 56.355C13.7824 55.795 13.6261 55.1767 13.6261 54.5C13.6261 53.9867 13.7171 53.5083 13.8991 53.065C14.0811 52.617 14.3307 52.225 14.6481 51.889C14.9701 51.5483 15.3434 51.2823 15.7681 51.091C16.1927 50.8997 16.6454 50.804 17.1261 50.804C17.7001 50.804 18.2297 50.937 18.7151 51.203C19.2004 51.469 19.6041 51.826 19.9261 52.274L18.3861 53.1C18.2227 52.9133 18.0291 52.7687 17.8051 52.666C17.5857 52.5633 17.3594 52.512 17.1261 52.512C16.7901 52.512 16.4867 52.6053 16.2161 52.792C15.9454 52.974 15.7307 53.2167 15.5721 53.52C15.4134 53.8187 15.3341 54.1453 15.3341 54.5C15.3341 54.85 15.4134 55.1767 15.5721 55.48C15.7307 55.7787 15.9454 56.019 16.2161 56.201C16.4867 56.383 16.7901 56.474 17.1261 56.474C17.3687 56.474 17.5997 56.4227 17.8191 56.32C18.0384 56.2127 18.2274 56.0703 18.3861 55.893ZM26.242 51H27.95V58H26.242L26.165 57.132C25.9737 57.4447 25.7194 57.699 25.402 57.895C25.0894 58.0863 24.7184 58.182 24.289 58.182C23.771 58.182 23.2857 58.084 22.833 57.888C22.3804 57.692 21.9814 57.4213 21.636 57.076C21.2954 56.7307 21.027 56.3317 20.831 55.879C20.6397 55.4263 20.544 54.941 20.544 54.423C20.544 53.9237 20.635 53.4547 20.817 53.016C21.0037 52.5773 21.2627 52.1923 21.594 51.861C21.9254 51.5297 22.308 51.2707 22.742 51.084C23.176 50.8973 23.6427 50.804 24.142 50.804C24.604 50.804 25.017 50.9067 25.381 51.112C25.7497 51.3173 26.0624 51.5787 26.319 51.896L26.242 51ZM24.247 56.537C24.611 56.537 24.933 56.446 25.213 56.264C25.493 56.082 25.7124 55.837 25.871 55.529C26.0297 55.2163 26.109 54.8733 26.109 54.5C26.109 54.122 26.0297 53.779 25.871 53.471C25.7124 53.1583 25.4907 52.911 25.206 52.729C24.926 52.547 24.6064 52.456 24.247 52.456C23.8877 52.456 23.5587 52.5493 23.26 52.736C22.966 52.918 22.7304 53.163 22.553 53.471C22.3804 53.779 22.294 54.122 22.294 54.5C22.294 54.878 22.3827 55.221 22.56 55.529C22.7374 55.837 22.973 56.082 23.267 56.264C23.5657 56.446 23.8924 56.537 24.247 56.537ZM35.7569 53.576V58H34.0489V54.024C34.0489 53.7487 33.9812 53.499 33.8459 53.275C33.7105 53.0463 33.5285 52.8667 33.2999 52.736C33.0759 52.6007 32.8262 52.533 32.5509 52.533C32.2755 52.533 32.0235 52.6007 31.7949 52.736C31.5709 52.8667 31.3912 53.0463 31.2559 53.275C31.1252 53.499 31.0599 53.7487 31.0599 54.024V58H29.3519L29.3449 51H31.0529L31.0599 51.623C31.2979 51.371 31.5825 51.1727 31.9139 51.028C32.2452 50.8787 32.6022 50.804 32.9849 50.804C33.4935 50.804 33.9579 50.93 34.3779 51.182C34.7979 51.4293 35.1315 51.763 35.3789 52.183C35.6309 52.5983 35.7569 53.0627 35.7569 53.576Z" fill="#8391A1"/>
</svg>
